<?xml version="1.0" encoding="UTF-8" standalone="no"?>
<!DOCTYPE svg PUBLIC "-//W3C//DTD SVG 1.1//EN"
 "http://www.w3.org/Graphics/SVG/1.1/DTD/svg11.dtd">
<!-- Generated by graphviz version 2.40.1 (20161225.0304)
 -->
<!-- Title: dependencies Pages: 1 -->
<svg width="1346pt" height="284pt"
 viewBox="0.00 0.00 1346.00 284.00" xmlns="http://www.w3.org/2000/svg" xmlns:xlink="http://www.w3.org/1999/xlink">
<g id="graph0" class="graph" transform="scale(1 1) rotate(0) translate(4 280)">
<title>dependencies</title>
<polygon fill="#ffffff" stroke="transparent" points="-4,4 -4,-280 1342,-280 1342,4 -4,4"/>
<text text-anchor="start" x="648.0091" y="-42.4" font-family="sans-serif" font-weight="bold" font-size="14.00" fill="#000000">Legend</text>
<polygon fill="#ffffb3" stroke="transparent" points="435,-10 435,-30 455,-30 455,-10 435,-10"/>
<text text-anchor="start" x="458.629" y="-15.4" font-family="sans-serif" font-size="14.00" fill="#000000"> &#160;Declarations</text>
<polygon fill="#8dd3c7" stroke="transparent" points="548,-10 548,-30 568,-30 568,-10 548,-10"/>
<text text-anchor="start" x="571.7251" y="-15.4" font-family="sans-serif" font-size="14.00" fill="#000000"> &#160;Module</text>
<polygon fill="#80b1d3" stroke="transparent" points="634,-10 634,-30 654,-30 654,-10 634,-10"/>
<text text-anchor="start" x="657.7812" y="-15.4" font-family="sans-serif" font-size="14.00" fill="#000000"> &#160;Bootstrap</text>
<polygon fill="#fdb462" stroke="transparent" points="731,-10 731,-30 751,-30 751,-10 731,-10"/>
<text text-anchor="start" x="754.6732" y="-15.4" font-family="sans-serif" font-size="14.00" fill="#000000"> &#160;Providers</text>
<polygon fill="#fb8072" stroke="transparent" points="827,-10 827,-30 847,-30 847,-10 827,-10"/>
<text text-anchor="start" x="850.7258" y="-15.4" font-family="sans-serif" font-size="14.00" fill="#000000"> &#160;Exports</text>
<g id="clust1" class="cluster">
<title>cluster_AppModule</title>
<polygon fill="none" stroke="#000000" stroke-dasharray="1,5" points="8,-70 8,-268 1330,-268 1330,-70 8,-70"/>
</g>
<g id="clust2" class="cluster">
<title>cluster_AppModule_declarations</title>
<polygon fill="none" stroke="#000000" points="528,-78 528,-130 1322,-130 1322,-78 528,-78"/>
</g>
<g id="clust9" class="cluster">
<title>cluster_AppModule_imports</title>
<polygon fill="none" stroke="#000000" points="376,-78 376,-130 520,-130 520,-78 376,-78"/>
</g>
<g id="clust11" class="cluster">
<title>cluster_AppModule_bootstrap</title>
<polygon fill="none" stroke="#000000" points="680,-208 680,-260 804,-260 804,-208 680,-208"/>
</g>
<g id="clust12" class="cluster">
<title>cluster_AppModule_providers</title>
<polygon fill="none" stroke="#000000" points="16,-78 16,-130 368,-130 368,-78 16,-78"/>
</g>
<!-- AppComponent -->
<g id="node1" class="node">
<title>AppComponent</title>
<polygon fill="#ffffb3" stroke="#000000" points="1313.9399,-122 1208.0601,-122 1208.0601,-86 1313.9399,-86 1313.9399,-122"/>
<text text-anchor="middle" x="1261" y="-99.8" font-family="Times,serif" font-size="14.00" fill="#000000">AppComponent</text>
</g>
<!-- AppModule -->
<g id="node7" class="node">
<title>AppModule</title>
<polygon fill="#8dd3c7" stroke="#000000" points="783.6571,-187 780.6571,-191 759.6571,-191 756.6571,-187 700.3429,-187 700.3429,-151 783.6571,-151 783.6571,-187"/>
<text text-anchor="middle" x="742" y="-164.8" font-family="Times,serif" font-size="14.00" fill="#000000">AppModule</text>
</g>
<!-- AppComponent&#45;&gt;AppModule -->
<g id="edge1" class="edge">
<title>AppComponent&#45;&gt;AppModule</title>
<path fill="none" stroke="#000000" d="M1261,-122.0109C1261,-144.4852 1261,-180 1261,-180 1261,-180 794.0323,-180 794.0323,-180"/>
<polygon fill="#000000" stroke="#000000" points="794.0324,-176.5001 784.0323,-180 794.0323,-183.5001 794.0324,-176.5001"/>
</g>
<!-- HomeComponent -->
<g id="node2" class="node">
<title>HomeComponent</title>
<polygon fill="#ffffb3" stroke="#000000" points="1190.5451,-122 1075.4549,-122 1075.4549,-86 1190.5451,-86 1190.5451,-122"/>
<text text-anchor="middle" x="1133" y="-99.8" font-family="Times,serif" font-size="14.00" fill="#000000">HomeComponent</text>
</g>
<!-- HomeComponent&#45;&gt;AppModule -->
<g id="edge2" class="edge">
<title>HomeComponent&#45;&gt;AppModule</title>
<path fill="none" stroke="#000000" d="M1133,-122.1289C1133,-142.5724 1133,-173 1133,-173 1133,-173 793.8438,-173 793.8438,-173"/>
<polygon fill="#000000" stroke="#000000" points="793.8439,-169.5001 783.8438,-173 793.8438,-176.5001 793.8439,-169.5001"/>
</g>
<!-- LoginComponent -->
<g id="node3" class="node">
<title>LoginComponent</title>
<polygon fill="#ffffb3" stroke="#000000" points="1057.2758,-122 942.7242,-122 942.7242,-86 1057.2758,-86 1057.2758,-122"/>
<text text-anchor="middle" x="1000" y="-99.8" font-family="Times,serif" font-size="14.00" fill="#000000">LoginComponent</text>
</g>
<!-- LoginComponent&#45;&gt;AppModule -->
<g id="edge3" class="edge">
<title>LoginComponent&#45;&gt;AppModule</title>
<path fill="none" stroke="#000000" d="M1000,-122.2667C1000,-140.5552 1000,-166 1000,-166 1000,-166 793.7389,-166 793.7389,-166"/>
<polygon fill="#000000" stroke="#000000" points="793.7389,-162.5001 783.7389,-166 793.7389,-169.5001 793.7389,-162.5001"/>
</g>
<!-- PostComponent -->
<g id="node4" class="node">
<title>PostComponent</title>
<polygon fill="#ffffb3" stroke="#000000" points="924.9512,-122 819.0488,-122 819.0488,-86 924.9512,-86 924.9512,-122"/>
<text text-anchor="middle" x="872" y="-99.8" font-family="Times,serif" font-size="14.00" fill="#000000">PostComponent</text>
</g>
<!-- PostComponent&#45;&gt;AppModule -->
<g id="edge4" class="edge">
<title>PostComponent&#45;&gt;AppModule</title>
<path fill="none" stroke="#000000" d="M872,-122.0091C872,-138.0494 872,-159 872,-159 872,-159 793.8484,-159 793.8484,-159"/>
<polygon fill="#000000" stroke="#000000" points="793.8484,-155.5001 783.8484,-159 793.8484,-162.5001 793.8484,-155.5001"/>
</g>
<!-- ProfileComponent -->
<g id="node5" class="node">
<title>ProfileComponent</title>
<polygon fill="#ffffb3" stroke="#000000" points="801.9328,-122 682.0672,-122 682.0672,-86 801.9328,-86 801.9328,-122"/>
<text text-anchor="middle" x="742" y="-99.8" font-family="Times,serif" font-size="14.00" fill="#000000">ProfileComponent</text>
</g>
<!-- ProfileComponent&#45;&gt;AppModule -->
<g id="edge5" class="edge">
<title>ProfileComponent&#45;&gt;AppModule</title>
<path fill="none" stroke="#000000" d="M742,-122.1061C742,-122.1061 742,-140.991 742,-140.991"/>
<polygon fill="#000000" stroke="#000000" points="738.5001,-140.9909 742,-150.991 745.5001,-140.991 738.5001,-140.9909"/>
</g>
<!-- RegisterComponent -->
<g id="node6" class="node">
<title>RegisterComponent</title>
<polygon fill="#ffffb3" stroke="#000000" points="663.9846,-122 536.0154,-122 536.0154,-86 663.9846,-86 663.9846,-122"/>
<text text-anchor="middle" x="600" y="-99.8" font-family="Times,serif" font-size="14.00" fill="#000000">RegisterComponent</text>
</g>
<!-- RegisterComponent&#45;&gt;AppModule -->
<g id="edge6" class="edge">
<title>RegisterComponent&#45;&gt;AppModule</title>
<path fill="none" stroke="#000000" d="M600,-122.0091C600,-138.0494 600,-159 600,-159 600,-159 690.1633,-159 690.1633,-159"/>
<polygon fill="#000000" stroke="#000000" points="690.1634,-162.5001 700.1633,-159 690.1633,-155.5001 690.1634,-162.5001"/>
</g>
<!-- AppComponent  -->
<g id="node9" class="node">
<title>AppComponent </title>
<polygon fill="#80b1d3" stroke="#000000" points="796.439,-252 687.561,-252 687.561,-216 796.439,-216 796.439,-252"/>
<text text-anchor="middle" x="742" y="-229.8" font-family="Times,serif" font-size="14.00" fill="#000000">AppComponent </text>
</g>
<!-- AppModule&#45;&gt;AppComponent  -->
<g id="edge8" class="edge">
<title>AppModule&#45;&gt;AppComponent </title>
<path fill="none" stroke="#000000" stroke-dasharray="1,5" d="M742,-187.1061C742,-187.1061 742,-205.991 742,-205.991"/>
<polygon fill="#000000" stroke="#000000" points="738.5001,-205.9909 742,-215.991 745.5001,-205.991 738.5001,-205.9909"/>
</g>
<!-- AppRoutingModule -->
<g id="node8" class="node">
<title>AppRoutingModule</title>
<polygon fill="#8dd3c7" stroke="#000000" points="512.2744,-122 509.2744,-126 488.2744,-126 485.2744,-122 383.7256,-122 383.7256,-86 512.2744,-86 512.2744,-122"/>
<text text-anchor="middle" x="448" y="-99.8" font-family="Times,serif" font-size="14.00" fill="#000000">AppRoutingModule</text>
</g>
<!-- AppRoutingModule&#45;&gt;AppModule -->
<g id="edge7" class="edge">
<title>AppRoutingModule&#45;&gt;AppModule</title>
<path fill="none" stroke="#000000" d="M448,-122.2667C448,-140.5552 448,-166 448,-166 448,-166 690.1892,-166 690.1892,-166"/>
<polygon fill="#000000" stroke="#000000" points="690.1892,-169.5001 700.1892,-166 690.1892,-162.5001 690.1892,-169.5001"/>
</g>
<!-- AuthenticationService -->
<g id="node10" class="node">
<title>AuthenticationService</title>
<ellipse fill="#fdb462" stroke="#000000" cx="263" cy="-104" rx="97.2683" ry="18"/>
<text text-anchor="middle" x="263" y="-99.8" font-family="Times,serif" font-size="14.00" fill="#000000">AuthenticationService</text>
</g>
<!-- AuthenticationService&#45;&gt;AppModule -->
<g id="edge9" class="edge">
<title>AuthenticationService&#45;&gt;AppModule</title>
<path fill="none" stroke="#000000" d="M263,-122.1289C263,-142.5724 263,-173 263,-173 263,-173 690.3298,-173 690.3298,-173"/>
<polygon fill="#000000" stroke="#000000" points="690.3299,-176.5001 700.3298,-173 690.3298,-169.5001 690.3299,-176.5001"/>
</g>
<!-- DiaryService -->
<g id="node11" class="node">
<title>DiaryService</title>
<ellipse fill="#fdb462" stroke="#000000" cx="86" cy="-104" rx="61.9538" ry="18"/>
<text text-anchor="middle" x="86" y="-99.8" font-family="Times,serif" font-size="14.00" fill="#000000">DiaryService</text>
</g>
<!-- DiaryService&#45;&gt;AppModule -->
<g id="edge10" class="edge">
<title>DiaryService&#45;&gt;AppModule</title>
<path fill="none" stroke="#000000" d="M86,-122.0109C86,-144.4852 86,-180 86,-180 86,-180 690.2168,-180 690.2168,-180"/>
<polygon fill="#000000" stroke="#000000" points="690.2168,-183.5001 700.2168,-180 690.2168,-176.5001 690.2168,-183.5001"/>
</g>
</g>
</svg>
